<svg width="121" height="40" viewBox="0 0 121 40" fill="none" xmlns="http://www.w3.org/2000/svg">
<path d="M111.055 0.00013H9.61436C9.24459 0.00013 8.87927 0.00013 8.51048 0.00213C8.20177 0.00413 7.89552 0.00994 7.58385 0.01483C6.90675 0.0227318 6.23125 0.0818063 5.5632 0.19154C4.8961 0.303663 4.24989 0.515046 3.64644 0.81854C3.04372 1.1246 2.49301 1.5223 2.01426 1.9972C1.53301 2.47077 1.13184 3.01815 0.826197 3.61829C0.519707 4.21724 0.307186 4.85907 0.195974 5.52161C0.0837046 6.18332 0.0232914 6.85265 0.0152766 7.52361C0.00591905 7.83021 0.00493086 8.13783 0 8.44447V31.5587C0.00493086 31.8692 0.00591905 32.17 0.0152766 32.4806C0.0232939 33.1516 0.0837071 33.8209 0.195974 34.4825C0.306879 35.1455 0.519413 35.7877 0.826197 36.3868C1.1317 36.985 1.53292 37.5302 2.01426 38.0011C2.49119 38.4781 3.04226 38.8761 3.64644 39.1798C4.24989 39.4841 4.89603 39.6968 5.5632 39.8106C6.23136 39.9195 6.9068 39.9786 7.58385 39.9874C7.89552 39.9942 8.20177 39.9981 8.51048 39.9981C8.87926 40.0001 9.24461 40.0001 9.61436 40.0001H111.055C111.418 40.0001 111.786 40.0001 112.148 39.9981C112.455 39.9981 112.771 39.9942 113.078 39.9874C113.754 39.9791 114.428 39.92 115.095 39.8106C115.764 39.696 116.412 39.4834 117.019 39.1798C117.622 38.8759 118.173 38.478 118.649 38.0011C119.129 37.5284 119.532 36.9836 119.841 36.3868C120.145 35.7872 120.356 35.1451 120.465 34.4825C120.578 33.8208 120.64 33.1516 120.652 32.4806C120.656 32.17 120.656 31.8692 120.656 31.5587C120.664 31.1954 120.664 30.8341 120.664 30.4649V9.53626C120.664 9.17005 120.664 8.80677 120.656 8.44447C120.656 8.13783 120.656 7.83021 120.652 7.52357C120.64 6.85255 120.578 6.18337 120.465 5.52157C120.356 4.85941 120.145 4.21763 119.841 3.61825C119.218 2.41533 118.231 1.43616 117.019 0.81845C116.412 0.515697 115.764 0.30437 115.095 0.19145C114.428 0.0812328 113.754 0.0221378 113.078 0.01469C112.771 0.00981 112.455 0.00395 112.148 0.002C111.786 0 111.418 0 111.055 0V0.00013Z" fill="#A6A6A6"/>
<path d="M8.51544 39.1251C8.20821 39.1251 7.90841 39.1212 7.60359 39.1144C6.97214 39.1063 6.34216 39.0517 5.71883 38.9513C5.1376 38.852 4.57455 38.6674 4.04824 38.4034C3.52676 38.1416 3.05113 37.7984 2.63957 37.3868C2.22205 36.9801 1.87445 36.5084 1.61053 35.9903C1.34371 35.4689 1.15905 34.91 1.06299 34.3331C0.959259 33.7132 0.903134 33.0864 0.895103 32.4581C0.88871 32.2472 0.880341 31.545 0.880341 31.545V8.44446C0.880341 8.44446 0.889254 7.75305 0.895153 7.54992C0.902843 6.9226 0.958642 6.29678 1.06207 5.67785C1.1583 5.09937 1.3431 4.53887 1.61007 4.01575C1.87301 3.49807 2.21869 3.02598 2.63369 2.6178C3.04823 2.20574 3.52538 1.86073 4.04775 1.59533C4.57285 1.33222 5.13483 1.14885 5.71489 1.05139C6.34027 0.949958 6.97243 0.895118 7.60607 0.887332L8.51593 0.875122H112.143L113.064 0.887822C113.692 0.895221 114.318 0.949572 114.938 1.05041C115.524 1.1491 116.092 1.33374 116.623 1.59826C117.669 2.13311 118.521 2.97929 119.058 4.01819C119.321 4.5377 119.503 5.09363 119.598 5.66711C119.702 6.29111 119.761 6.92186 119.773 7.55432C119.776 7.83752 119.776 8.14172 119.776 8.44446C119.784 8.81946 119.784 9.17639 119.784 9.53625V30.4649C119.784 30.8282 119.784 31.1827 119.776 31.5401C119.776 31.8653 119.776 32.1632 119.772 32.4698C119.76 33.091 119.703 33.7105 119.6 34.3233C119.505 34.9044 119.322 35.4676 119.055 35.9933C118.789 36.5057 118.444 36.9734 118.031 37.379C117.619 37.7928 117.143 38.1381 116.62 38.4015C116.09 38.6675 115.523 38.8529 114.938 38.9513C114.315 39.0523 113.685 39.1068 113.053 39.1144C112.758 39.1212 112.449 39.1251 112.148 39.1251L111.055 39.1271L8.51544 39.1251Z" fill="black"/>
<path d="M24.976 20.3008C24.9868 19.4662 25.2104 18.6478 25.6258 17.9218C26.0413 17.1959 26.6352 16.5859 27.3522 16.1488C26.8967 15.5036 26.2958 14.9727 25.5972 14.5981C24.8986 14.2236 24.1215 14.0157 23.3277 13.9911C21.6344 13.8148 19.9929 14.9959 19.13 14.9959C18.2505 14.9959 16.922 14.0086 15.4914 14.0378C14.566 14.0674 13.6642 14.3343 12.8738 14.8123C12.0834 15.2904 11.4313 15.9633 10.9811 16.7656C9.03091 20.1141 10.4856 25.0351 12.3537 27.7417C13.2883 29.0671 14.3806 30.5475 15.8099 30.495C17.2086 30.4375 17.7309 29.6105 19.4192 29.6105C21.0919 29.6105 21.5819 30.495 23.0402 30.4616C24.5411 30.4375 25.4867 29.1304 26.3885 27.7925C27.06 26.8481 27.5768 25.8044 27.9196 24.7C27.0477 24.3343 26.3036 23.7221 25.7801 22.9398C25.2567 22.1575 24.977 21.2397 24.976 20.3008Z" fill="white"/>
<path d="M22.2216 12.2111C23.0399 11.2369 23.443 9.98469 23.3454 8.72046C22.0952 8.85068 20.9404 9.44324 20.111 10.3801C19.7055 10.8377 19.3949 11.3702 19.1971 11.9469C18.9992 12.5237 18.9178 13.1335 18.9577 13.7415C19.5831 13.7478 20.2017 13.6134 20.767 13.3483C21.3324 13.0833 21.8297 12.6944 22.2216 12.2111Z" fill="white"/>
<path d="M42.6561 27.1398H37.8831L36.7369 30.4962H34.7153L39.2361 18.0782H41.3365L45.8574 30.4962H43.8013L42.6561 27.1398ZM38.3775 25.591H42.1608L40.2957 20.1437H40.2435L38.3775 25.591Z" fill="white"/>
<path d="M55.6211 25.9699C55.6211 28.7834 54.1026 30.591 51.8112 30.591C51.2307 30.6211 50.6534 30.4885 50.1454 30.2084C49.6374 29.9283 49.2192 29.5119 48.9388 29.007H48.8954V33.4914H47.0215V21.4426H48.8354V22.9485H48.8698C49.1632 22.446 49.5885 22.0318 50.1003 21.7499C50.6122 21.4681 51.1915 21.3291 51.7767 21.3479C54.0937 21.3479 55.6211 23.1643 55.6211 25.9699ZM53.695 25.9699C53.695 24.1369 52.7398 22.9319 51.2824 22.9319C49.8506 22.9319 48.8875 24.1623 48.8875 25.9699C48.8875 27.7942 49.8506 29.0158 51.2824 29.0158C52.7398 29.0158 53.695 27.8196 53.695 25.9699Z" fill="white"/>
<path d="M65.6692 25.9699C65.6692 28.7834 64.1508 30.591 61.8593 30.591C61.2788 30.6211 60.7016 30.4885 60.1936 30.2084C59.6855 29.9283 59.2674 29.5119 58.9869 29.007H58.9435V33.4914H57.0696V21.4426H58.8834V22.9484H58.9179C59.2113 22.446 59.6365 22.0318 60.1484 21.7499C60.6603 21.4681 61.2396 21.3291 61.8248 21.3479C64.1419 21.3479 65.6692 23.1643 65.6692 25.9699ZM63.7431 25.9699C63.7431 24.1369 62.7879 22.9318 61.3305 22.9318C59.8987 22.9318 58.9357 24.1623 58.9357 25.9699C58.9357 27.7942 59.8987 29.0158 61.3305 29.0158C62.7879 29.0158 63.7431 27.8195 63.7431 25.9699H63.7431Z" fill="white"/>
<path d="M72.3102 27.0363C72.449 28.2678 73.6553 29.0763 75.3037 29.0763C76.8832 29.0763 78.0196 28.2677 78.0196 27.1574C78.0196 26.1935 77.3342 25.6164 75.7114 25.2208L74.0886 24.8331C71.7893 24.2824 70.7218 23.2159 70.7218 21.4855C70.7218 19.3429 72.6046 17.8712 75.2781 17.8712C77.9241 17.8712 79.7379 19.3429 79.799 21.4855H77.9073C77.7941 20.2462 76.7611 19.4982 75.2515 19.4982C73.7419 19.4982 72.709 20.255 72.709 21.3566C72.709 22.2345 73.3687 22.7511 74.9827 23.1466L76.3623 23.4825C78.9314 24.0851 79.9989 25.1085 79.9989 26.9249C79.9989 29.2481 78.1328 30.7032 75.1649 30.7032C72.3879 30.7032 70.513 29.2823 70.3919 27.0362L72.3102 27.0363Z" fill="white"/>
<path d="M84.0431 19.2999V21.4425H85.7792V22.9142H84.0431V27.9054C84.0431 28.6808 84.3907 29.0421 85.1539 29.0421C85.36 29.0386 85.5657 29.0242 85.7703 28.9991V30.462C85.4272 30.5256 85.0785 30.5544 84.7295 30.5479C82.8811 30.5479 82.1603 29.8595 82.1603 28.1036V22.9142H80.8329V21.4425H82.1603V19.2999H84.0431Z" fill="white"/>
<path d="M86.7846 25.9698C86.7846 23.1212 88.4763 21.3312 91.1144 21.3312C93.7614 21.3312 95.4452 23.1212 95.4452 25.9698C95.4452 28.8263 93.7702 30.6085 91.1144 30.6085C88.4596 30.6085 86.7846 28.8263 86.7846 25.9698ZM93.5358 25.9698C93.5358 24.0157 92.6329 22.8624 91.1144 22.8624C89.596 22.8624 88.694 24.0245 88.694 25.9698C88.694 27.9318 89.596 29.0763 91.1144 29.0763C92.6329 29.0763 93.5358 27.9318 93.5358 25.9698H93.5358Z" fill="white"/>
<path d="M96.9903 21.4425H98.7775V22.9835H98.8209C98.9418 22.5022 99.2261 22.0769 99.626 21.779C100.026 21.4811 100.517 21.3288 101.017 21.3478C101.233 21.347 101.448 21.3703 101.659 21.4171V23.1554C101.386 23.0728 101.102 23.0348 100.817 23.0431C100.545 23.0321 100.273 23.0797 100.021 23.1826C99.7694 23.2855 99.5429 23.4412 99.3574 23.6391C99.1719 23.837 99.0318 24.0724 98.9466 24.3291C98.8615 24.5857 98.8334 24.8576 98.8642 25.1261V30.4962H96.9903L96.9903 21.4425Z" fill="white"/>
<path d="M110.299 27.837C110.047 29.4806 108.433 30.6085 106.368 30.6085C103.712 30.6085 102.064 28.8439 102.064 26.0128C102.064 23.173 103.721 21.3312 106.289 21.3312C108.815 21.3312 110.403 23.0519 110.403 25.797V26.4337H103.955V26.546C103.925 26.8792 103.968 27.2149 104.079 27.5307C104.19 27.8466 104.367 28.1353 104.6 28.3779C104.832 28.6204 105.114 28.8112 105.426 28.9375C105.738 29.0638 106.074 29.1228 106.411 29.1105C106.854 29.1516 107.298 29.0499 107.678 28.8205C108.058 28.591 108.353 28.2461 108.519 27.837L110.299 27.837ZM103.964 25.1349H108.528C108.545 24.8353 108.499 24.5355 108.394 24.2543C108.288 23.9731 108.125 23.7165 107.915 23.5008C107.705 23.285 107.452 23.1147 107.172 23.0004C106.892 22.8862 106.592 22.8306 106.289 22.837C105.984 22.8352 105.681 22.8934 105.399 23.0081C105.117 23.1229 104.86 23.2919 104.644 23.5056C104.428 23.7192 104.256 23.9732 104.14 24.2528C104.023 24.5325 103.963 24.8323 103.964 25.1349V25.1349Z" fill="white"/>
<path d="M38.1423 8.73114C38.5351 8.70318 38.9294 8.76204 39.2965 8.90347C39.6637 9.0449 39.9946 9.26538 40.2654 9.54901C40.5363 9.83263 40.7403 10.1723 40.8627 10.5436C40.9851 10.9149 41.0229 11.3085 40.9734 11.696C40.9734 13.6022 39.9345 14.698 38.1423 14.698H35.969V8.73114H38.1423ZM36.9035 13.8541H38.0379C38.3186 13.8708 38.5996 13.8251 38.8603 13.7205C39.121 13.6159 39.3549 13.455 39.5449 13.2494C39.735 13.0438 39.8765 12.7988 39.959 12.5322C40.0415 12.2656 40.0631 11.9841 40.0221 11.7081C40.0601 11.4333 40.0364 11.1535 39.9526 10.8889C39.8688 10.6242 39.727 10.3812 39.5373 10.1773C39.3477 9.97334 39.1149 9.81353 38.8557 9.70929C38.5965 9.60506 38.3172 9.55897 38.0379 9.57435H36.9035V13.8541Z" fill="white"/>
<path d="M42.029 12.4445C42.0005 12.1486 42.0346 11.85 42.1292 11.568C42.2239 11.2859 42.3769 11.0266 42.5785 10.8066C42.7801 10.5866 43.0259 10.4108 43.3 10.2906C43.5741 10.1703 43.8705 10.1082 44.1703 10.1082C44.47 10.1082 44.7665 10.1703 45.0406 10.2906C45.3147 10.4108 45.5605 10.5866 45.7621 10.8066C45.9637 11.0266 46.1167 11.2859 46.2114 11.568C46.306 11.85 46.3401 12.1486 46.3116 12.4445C46.3407 12.7408 46.3069 13.0397 46.2126 13.3223C46.1182 13.6048 45.9653 13.8646 45.7636 14.085C45.5619 14.3054 45.316 14.4816 45.0416 14.6021C44.7672 14.7226 44.4704 14.7849 44.1703 14.7849C43.8702 14.7849 43.5734 14.7226 43.299 14.6021C43.0246 14.4816 42.7787 14.3054 42.577 14.085C42.3753 13.8646 42.2224 13.6048 42.128 13.3223C42.0337 13.0397 41.9999 12.7408 42.029 12.4445ZM45.3899 12.4445C45.3899 11.4685 44.9477 10.8977 44.1718 10.8977C43.3929 10.8977 42.9547 11.4685 42.9547 12.4445C42.9547 13.4284 43.3929 13.9948 44.1718 13.9948C44.9477 13.9948 45.3899 13.4245 45.3899 12.4445H45.3899Z" fill="white"/>
<path d="M52.0042 14.6979H51.0746L50.1362 11.3815H50.0653L49.1308 14.6979H48.2101L46.9585 10.1949H47.8674L48.6808 13.6309H48.7478L49.6813 10.1949H50.5409L51.4744 13.6309H51.5453L52.3548 10.1949H53.2509L52.0042 14.6979Z" fill="white"/>
<path d="M54.3036 10.195H55.1662V10.9103H55.2331C55.3467 10.6534 55.5383 10.438 55.7812 10.2942C56.0241 10.1504 56.3062 10.0853 56.5881 10.1081C56.8091 10.0916 57.0309 10.1246 57.2372 10.2047C57.4435 10.2848 57.629 10.4099 57.7799 10.5708C57.9309 10.7316 58.0434 10.9241 58.1091 11.1339C58.1749 11.3437 58.1922 11.5655 58.1597 11.7829V14.6979H57.2636V12.006C57.2636 11.2824 56.9466 10.9225 56.2838 10.9225C56.1338 10.9156 55.9841 10.9409 55.8449 10.9968C55.7057 11.0526 55.5803 11.1376 55.4773 11.246C55.3743 11.3544 55.2962 11.4836 55.2483 11.6247C55.2004 11.7658 55.1838 11.9156 55.1997 12.0636V14.6979H54.3036L54.3036 10.195Z" fill="white"/>
<path d="M59.5876 8.43713H60.4837V14.6979H59.5876V8.43713Z" fill="white"/>
<path d="M61.7294 12.4445C61.7008 12.1486 61.735 11.85 61.8296 11.5679C61.9243 11.2858 62.0773 11.0265 62.279 10.8065C62.4806 10.5865 62.7264 10.4107 63.0005 10.2904C63.2747 10.1702 63.5711 10.108 63.8709 10.108C64.1707 10.108 64.4671 10.1702 64.7413 10.2904C65.0154 10.4107 65.2612 10.5865 65.4628 10.8065C65.6644 11.0265 65.8175 11.2858 65.9121 11.5679C66.0068 11.85 66.0409 12.1486 66.0124 12.4445C66.0415 12.7407 66.0077 13.0397 65.9133 13.3222C65.8189 13.6048 65.6659 13.8646 65.4643 14.085C65.2626 14.3054 65.0166 14.4815 64.7422 14.602C64.4678 14.7226 64.171 14.7848 63.8709 14.7848C63.5708 14.7848 63.274 14.7226 62.9996 14.602C62.7252 14.4815 62.4792 14.3054 62.2775 14.085C62.0758 13.8646 61.9229 13.6048 61.8285 13.3222C61.7341 13.0397 61.7003 12.7407 61.7294 12.4445ZM65.0902 12.4445C65.0902 11.4684 64.6481 10.8976 63.8721 10.8976C63.0932 10.8976 62.655 11.4684 62.655 12.4445C62.655 13.4284 63.0932 13.9948 63.8721 13.9948C64.6481 13.9948 65.0902 13.4245 65.0902 12.4445H65.0902Z" fill="white"/>
<path d="M66.9558 13.4244C66.9558 12.6139 67.5643 12.1466 68.6446 12.0802L69.8745 12.0099V11.6212C69.8745 11.1456 69.5574 10.8771 68.9449 10.8771C68.4447 10.8771 68.0981 11.0592 67.9986 11.3776H67.1311C67.2226 10.6041 67.9563 10.108 68.9863 10.108C70.1246 10.108 70.7667 10.67 70.7667 11.6212V14.6979H69.904V14.0651H69.8331C69.6892 14.2921 69.4872 14.4771 69.2475 14.6013C69.0079 14.7255 68.7394 14.7844 68.4693 14.7721C68.2787 14.7917 68.086 14.7716 67.9038 14.7129C67.7215 14.6542 67.5536 14.5582 67.411 14.4313C67.2684 14.3043 67.1543 14.1491 67.0758 13.9757C66.9974 13.8023 66.9565 13.6145 66.9558 13.4244ZM69.8745 13.0397V12.6632L68.7657 12.7335C68.1404 12.775 67.8568 12.986 67.8568 13.3829C67.8568 13.7882 68.2113 14.024 68.6988 14.024C68.8416 14.0384 68.9859 14.0241 69.123 13.982C69.2602 13.9399 69.3874 13.8709 69.4971 13.779C69.6067 13.6872 69.6967 13.5744 69.7615 13.4474C69.8264 13.3204 69.8648 13.1817 69.8745 13.0397Z" fill="white"/>
<path d="M71.9444 12.4445C71.9444 11.0216 72.6819 10.1203 73.8291 10.1203C74.1129 10.1073 74.3945 10.1747 74.6411 10.3146C74.8877 10.4545 75.089 10.6611 75.2215 10.9103H75.2885V8.43713H76.1846V14.6979H75.3259V13.9864H75.255C75.1122 14.2339 74.9039 14.438 74.6526 14.5765C74.4012 14.7149 74.1165 14.7826 73.8291 14.7721C72.6741 14.7721 71.9444 13.8707 71.9444 12.4445ZM72.8701 12.4445C72.8701 13.3996 73.324 13.9743 74.0832 13.9743C74.8385 13.9743 75.3053 13.3913 75.3053 12.4484C75.3053 11.5099 74.8336 10.9186 74.0832 10.9186C73.3289 10.9186 72.87 11.4972 72.87 12.4445H72.8701Z" fill="white"/>
<path d="M79.8921 12.4445C79.8636 12.1486 79.8977 11.85 79.9923 11.568C80.087 11.2859 80.24 11.0266 80.4416 10.8066C80.6432 10.5866 80.889 10.4108 81.1631 10.2906C81.4372 10.1703 81.7336 10.1082 82.0334 10.1082C82.3332 10.1082 82.6296 10.1703 82.9037 10.2906C83.1778 10.4108 83.4236 10.5866 83.6252 10.8066C83.8268 11.0266 83.9798 11.2859 84.0745 11.568C84.1691 11.85 84.2032 12.1486 84.1747 12.4445C84.2038 12.7408 84.17 13.0397 84.0757 13.3223C83.9813 13.6048 83.8284 13.8646 83.6267 14.085C83.425 14.3054 83.1791 14.4816 82.9047 14.6021C82.6303 14.7226 82.3335 14.7849 82.0334 14.7849C81.7333 14.7849 81.4365 14.7226 81.1621 14.6021C80.8877 14.4816 80.6418 14.3054 80.4401 14.085C80.2384 13.8646 80.0855 13.6048 79.9911 13.3223C79.8968 13.0397 79.863 12.7408 79.8921 12.4445ZM83.253 12.4445C83.253 11.4685 82.8108 10.8977 82.0349 10.8977C81.256 10.8977 80.8178 11.4685 80.8178 12.4445C80.8178 13.4284 81.256 13.9948 82.0349 13.9948C82.8108 13.9948 83.253 13.4245 83.253 12.4445Z" fill="white"/>
<path d="M85.377 10.195H86.2396V10.9103H86.3066C86.4202 10.6534 86.6118 10.438 86.8546 10.2942C87.0975 10.1504 87.3796 10.0853 87.6616 10.1081C87.8825 10.0916 88.1043 10.1246 88.3106 10.2047C88.5169 10.2848 88.7024 10.4099 88.8534 10.5708C89.0043 10.7316 89.1168 10.9241 89.1826 11.1339C89.2483 11.3437 89.2656 11.5655 89.2332 11.7829V14.6979H88.3371V12.006C88.3371 11.2824 88.02 10.9225 87.3573 10.9225C87.2073 10.9156 87.0575 10.9409 86.9183 10.9968C86.7791 11.0526 86.6537 11.1376 86.5507 11.246C86.4478 11.3544 86.3696 11.4836 86.3217 11.6247C86.2738 11.7658 86.2572 11.9156 86.2731 12.0636V14.6979H85.377V10.195Z" fill="white"/>
<path d="M94.2966 9.07385V10.2155H95.2804V10.964H94.2966V13.2794C94.2966 13.7511 94.4926 13.9576 94.9387 13.9576C95.0529 13.9573 95.167 13.9504 95.2804 13.9371V14.6774C95.1194 14.7059 94.9564 14.7211 94.7929 14.7228C93.7964 14.7228 93.3995 14.3751 93.3995 13.507V10.964H92.6787V10.2154H93.3995V9.07385H94.2966Z" fill="white"/>
<path d="M96.5044 8.43713H97.3926V10.9186H97.4635C97.5826 10.6593 97.7795 10.4427 98.0272 10.2983C98.275 10.154 98.5616 10.0889 98.848 10.1119C99.0677 10.1001 99.2874 10.1365 99.4914 10.2185C99.6954 10.3006 99.8786 10.4262 100.028 10.5866C100.177 10.7469 100.289 10.938 100.355 11.1461C100.422 11.3542 100.441 11.5743 100.412 11.7907V14.6979H99.5147V12.0099C99.5147 11.2906 99.1769 10.9264 98.5438 10.9264C98.3898 10.9139 98.2348 10.9349 98.0899 10.9879C97.9449 11.041 97.8133 11.1248 97.7044 11.2335C97.5955 11.3423 97.5119 11.4733 97.4594 11.6174C97.4069 11.7616 97.3868 11.9153 97.4005 12.068V14.6979H96.5044L96.5044 8.43713Z" fill="white"/>
<path d="M105.637 13.482C105.515 13.8935 105.251 14.2495 104.891 14.4877C104.532 14.7258 104.099 14.831 103.669 14.7847C103.37 14.7926 103.073 14.7357 102.798 14.6182C102.523 14.5007 102.277 14.3253 102.078 14.1041C101.878 13.883 101.73 13.6214 101.642 13.3376C101.555 13.0538 101.531 12.7545 101.572 12.4605C101.532 12.1656 101.556 11.8657 101.644 11.581C101.731 11.2964 101.879 11.0336 102.077 10.8105C102.276 10.5874 102.52 10.4093 102.794 10.2881C103.068 10.1669 103.365 10.1054 103.665 10.108C104.929 10.108 105.691 10.964 105.691 12.378V12.6881H102.485V12.7379C102.47 12.9031 102.491 13.0695 102.546 13.2262C102.601 13.383 102.688 13.5267 102.801 13.6481C102.915 13.7696 103.053 13.8661 103.207 13.9315C103.361 13.9969 103.527 14.0297 103.694 14.0279C103.908 14.0534 104.125 14.0151 104.318 13.9179C104.51 13.8207 104.669 13.669 104.774 13.482L105.637 13.482ZM102.484 12.0308H104.778C104.789 11.8797 104.768 11.7279 104.717 11.5852C104.666 11.4425 104.585 11.312 104.48 11.2021C104.374 11.0923 104.247 11.0055 104.106 10.9473C103.965 10.8891 103.813 10.8609 103.66 10.8643C103.505 10.8624 103.351 10.8913 103.208 10.9492C103.064 11.0072 102.934 11.093 102.824 11.2017C102.715 11.3104 102.628 11.4398 102.57 11.5822C102.512 11.7246 102.482 11.8771 102.485 12.0308H102.484Z" fill="white"/>
</svg>
